<mxGraphModel dx="0" dy="0" grid="1" gridSize="10" guides="1" tooltips="1" connect="1" arrows="1" fold="1" page="0" pageScale="1" background="none" math="0" shadow="0">
  <root>
    <mxCell id="0" />
    <mxCell id="1" parent="0" />
    <mxCell id="node2" parent="1" vertex="1" value="&lt;p style=&quot;margin:0px;margin-top:4px;text-align:center;&quot;&gt;&lt;b&gt;libs.python.error.code&lt;/b&gt;&lt;/p&gt;&lt;hr size=&quot;1&quot;/&gt;&lt;p style=&quot;margin:0 0 0 4px;line-height:1.6;&quot;&gt; ERR_PARAMS: &lt;br/&gt; ERR_INPUT: &lt;br/&gt; ERR_OUTPUT: &lt;br/&gt; ERR_XML_FORMAT: &lt;br/&gt; ERR_XML_SYNTAX: &lt;br/&gt; ERR_XML_SEMANTIC: &lt;br/&gt; ERR_CODE_TYPE: &lt;br/&gt; ERR_CODE_VARIABLE: &lt;br/&gt; ERR_CODE_FRAME: &lt;br/&gt; ERR_CODE_VALUE: &lt;br/&gt; ERR_CODE_ZERO: &lt;br/&gt; ERR_CODE_STRING: &lt;br/&gt; ERR_INTERNAL: &lt;/p&gt;" style="verticalAlign=top;align=left;overflow=fill;fontSize=14;fontFamily=Helvetica;html=1;rounded=0;shadow=0;comic=0;labelBackgroundColor=none;strokeWidth=1;">
      <mxGeometry x="-89" y="434" width="179" height="318" as="geometry" />
    </mxCell>
    <mxCell id="node1" parent="1" vertex="1" value="&lt;p style=&quot;margin:0px;margin-top:4px;text-align:center;&quot;&gt;&lt;b&gt;object&lt;/b&gt;&lt;/p&gt;&lt;hr size=&quot;1&quot;/&gt;&lt;p style=&quot;margin:0 0 0 4px;line-height:1.6;&quot;&gt; __doc__: &lt;br/&gt; __dict__: &lt;br/&gt; __slots__: &lt;br/&gt; __module__: &lt;br/&gt; __annotations__: &lt;/p&gt;&lt;hr size=&quot;1&quot;/&gt;&lt;p style=&quot;margin:0 0 0 4px;line-height:1.6;&quot;&gt; __class__(self: _T): &lt;br/&gt; __class__(self, __type: Type[object]): &lt;br/&gt; __init__(self): &lt;br/&gt; __new__(cls: Type[_T]): &lt;br/&gt; __setattr__(self, name: str, value: Any): &lt;br/&gt; __eq__(self, o: object): &lt;br/&gt; __ne__(self, o: object): &lt;br/&gt; __str__(self): &lt;br/&gt; __repr__(self): &lt;br/&gt; __hash__(self): &lt;br/&gt; __format__(self, format_spec: str): &lt;br/&gt; __getattribute__(self, name: str): &lt;br/&gt; __delattr__(self, name: str): &lt;br/&gt; __sizeof__(self): &lt;br/&gt; __reduce__(self): &lt;br/&gt; __reduce_ex__(self, protocol: SupportsIndex): &lt;br/&gt; __reduce_ex__(self, protocol: int): &lt;br/&gt; __dir__(self): &lt;br/&gt; __init_subclass__(cls): &lt;/p&gt;" style="verticalAlign=top;align=left;overflow=fill;fontSize=14;fontFamily=Helvetica;html=1;rounded=0;shadow=0;comic=0;labelBackgroundColor=none;strokeWidth=1;">
      <mxGeometry x="-134" y="-177" width="268" height="561" as="geometry" />
    </mxCell>
    <mxCell id="node0" parent="1" vertex="1" value="&lt;p style=&quot;margin:0px;margin-top:4px;text-align:center;&quot;&gt;&lt;b&gt;typing.Hashable&lt;/b&gt;&lt;/p&gt;&lt;hr size=&quot;1&quot;/&gt;&lt;p style=&quot;margin:0 0 0 4px;line-height:1.6;&quot;&gt; __hash__(self): &lt;/p&gt;" style="verticalAlign=top;align=left;overflow=fill;fontSize=14;fontFamily=Helvetica;html=1;rounded=0;shadow=0;comic=0;labelBackgroundColor=none;strokeWidth=1;">
      <mxGeometry x="-71" y="-281" width="143" height="58" as="geometry" />
    </mxCell>
    <mxCell id="edge1" edge="1" value="" parent="1" source="node2" target="node1" style="html=1;rounded=1;edgeStyle=orthogonalEdgeStyle;dashed=0;startArrow=block;startSize=12;endArrow=none;strokeColor=#595959;exitX=0.500;exitY=0.000;exitDx=0;exitDy=0;entryX=0.500;entryY=1.000;entryDx=0;entryDy=0;">
      <mxGeometry width="50" height="50" relative="1" as="geometry">
        <Array as="points" />
      </mxGeometry>
    </mxCell>
    <mxCell id="edge0" edge="1" value="" parent="1" source="node1" target="node0" style="html=1;rounded=1;edgeStyle=orthogonalEdgeStyle;dashed=1;startArrow=block;startSize=12;endArrow=none;strokeColor=#595959;exitX=0.500;exitY=0.000;exitDx=0;exitDy=0;entryX=0.500;entryY=1.001;entryDx=0;entryDy=0;">
      <mxGeometry width="50" height="50" relative="1" as="geometry">
        <Array as="points" />
      </mxGeometry>
    </mxCell>
  </root>
</mxGraphModel>